subject01_walk1_RRA_states
nRows=6
nColumns=47

# SIMM Motion File Header:
name subject01_walk1_RRA_states
datacolumns 47
datarows 6
otherdata 1
range 1.24599999999997340000 1.24849999999997310000
endheader
time	pelvis_tx	pelvis_ty	pelvis_tz	pelvis_tilt	pelvis_list	pelvis_rotation	hip_flexion_r	hip_adduction_r	hip_rotation_r	knee_angle_r	ankle_angle_r	subtalar_angle_r	mtp_angle_r	hip_flexion_l	hip_adduction_l	hip_rotation_l	knee_angle_l	ankle_angle_l	subtalar_angle_l	mtp_angle_l	lumbar_extension	lumbar_bending	lumbar_rotation	pelvis_tx_u	pelvis_ty_u	pelvis_tz_u	pelvis_tilt_u	pelvis_list_u	pelvis_rotation_u	hip_flexion_r_u	hip_adduction_r_u	hip_rotation_r_u	knee_angle_r_u	ankle_angle_r_u	subtalar_angle_r_u	mtp_angle_r_u	hip_flexion_l_u	hip_adduction_l_u	hip_rotation_l_u	knee_angle_l_u	ankle_angle_l_u	subtalar_angle_l_u	mtp_angle_l_u	lumbar_extension_u	lumbar_bending_u	lumbar_rotation_u
      1.24599999999997340000	      0.59325415807917081000	      1.00907198316925650000	      0.05104082962758050400	      4.76962718229523650000	     -4.25655784871240430000	     -4.03544219561838790000	    -21.04205095557740500000	      4.74179678555162360000	      2.75947958214224000000	     -7.90916612049065740000	     13.81435104434342300000	      0.02616239066913819300	     -0.05238832646675594500	     18.92917921264033900000	     -5.48263743538873080000	     -3.60848986524322650000	     -2.37374594171600960000	     -0.48364021788175804000	     -0.00192936545923403140	      0.00311926056310969340	    -16.63524561130192900000	      3.25131108340663970000	      3.87159732805337550000	      0.11439408776895141000	     -0.10133265075622590000	     -0.04471012829751618000	     -4.11236709985021150000	      6.56880433477454510000	    -19.25073409447191600000	    -27.13705767366027300000	    -24.44798675429056800000	     29.86907381045047000000	    -82.17089704567615600000	     37.33467450493634500000	     -0.31845009778381267000	     -0.44399941872671955000	     22.61799451895301200000	     13.35849084197498200000	     31.07265655735035300000	   -111.95647870746502000000	    -28.71574386175456800000	      0.03167282878229394500	     -0.06075756277129611800	     11.89097132558020700000	    -30.25931038371894400000	     -1.77700557237709340000
      1.24649999999997330000	      0.59331160978287956000	      1.00902146019561270000	      0.05101843623841229700	      4.76755910207044580000	     -4.25325582041426830000	     -4.04504672273841680000	    -21.05551529393294500000	      4.72957536137399530000	      2.77439472840573260000	     -7.95046183484105300000	     13.83301685730781800000	      0.02600201219503025700	     -0.05261142542508561600	     18.94052296683170800000	     -5.47593611125482220000	     -3.59301801842156590000	     -2.43004558646347310000	     -0.49813842055405605000	     -0.00191349115625135480	      0.00308801815021577480	    -16.62926309433753100000	      3.23615087848059660000	      3.87068536638952090000	      0.11541320420507609000	     -0.10075816514733915000	     -0.04486365750131421400	     -4.15975529519401020000	      6.63908477032570770000	    -19.16723703985733000000	    -26.71995511782807100000	    -24.43734148795547900000	     29.79088781041630400000	    -83.01296861943473000000	     37.32760661184749300000	     -0.32319573559476455000	     -0.44942447584077710000	     22.75638384395277900000	     13.44673371296683100000	     30.81487634089786500000	   -113.23971089880008000000	    -29.27555993809038900000	      0.03192598162055435700	     -0.06548110692755851300	     12.03894637848628000000	    -30.38123002383307600000	     -1.87087209591378210000
      1.24699999999997320000	      0.59336957172469607000	      1.00897122614375450000	      0.05099596571182261200	      4.76546763466203420000	     -4.24991895247925560000	     -4.05460928171771600000	    -21.06877057389620600000	      4.71735977284818820000	      2.78926985918028560000	     -7.99218004735670280000	     13.85167705927090700000	      0.02583916962355814500	     -0.05283773199820591300	     18.95193493645148000000	     -5.46919073015456370000	     -3.57767481463709600000	     -2.48698308949841170000	     -0.51291510621171021000	     -0.00189743507341312180	      0.00305374387765301300	    -16.62320682711071400000	      3.22093009603688470000	      3.86972640399604020000	      0.11643496523669671000	     -0.10017683892293670000	     -0.04501873818351172900	     -4.20589682821825410000	      6.70823672237035050000	    -19.08283356062979100000	    -26.30083320524367400000	    -24.42472675194759900000	     29.70903644525454700000	    -83.86078307615886700000	     37.31098052131858400000	     -0.32807576910840713000	     -0.45472360913183507000	     22.89081140930910500000	     13.53480919238434900000	     30.55814398659737600000	   -114.50755177697627000000	    -29.83139872399154800000	      0.03219429924218751600	     -0.07034040806105107400	     12.18594739969995700000	    -30.50169652154660600000	     -1.96505178389195390000
      1.24749999999997320000	      0.59342804519554360000	      1.00892128458276220000	      0.05097341721351169400	      4.76335342213582980000	     -4.24654775466008250000	     -4.06412940108852360000	    -21.08181579013049900000	      4.70515094073454070000	      2.80410313289397490000	     -8.03432354292969460000	     13.87032609794930100000	      0.02567395686737603700	     -0.05306593814086847000	     18.96341310487271800000	     -5.46240131104985330000	     -3.56245969546548170000	     -2.54455049392055650000	     -0.52796939330603720000	     -0.00188140574759418410	      0.00301801412593050240	    -16.61707731632330400000	      3.20564940926968370000	      3.86872025313085730000	      0.11745941275434819000	     -0.09958816545912428700	     -0.04517553392207364300	     -4.25073893061062960000	      6.77635732639167370000	    -18.99750073172162200000	    -25.87968682760442000000	    -24.41026904106417900000	     29.62339787377539600000	    -84.71415979434512200000	     37.28396235098589500000	     -0.33285066346558151000	     -0.45883196721419145000	     23.02120327052814700000	     13.62282259401221800000	     30.30248543903181300000	   -115.75955240180981000000	    -30.38457641799207900000	      0.03185293997876101300	     -0.07332570926292475400	     12.33193412922766700000	    -30.62079341216854200000	     -2.05959723031993970000
      1.24799999999997310000	      0.59348703160431004000	      1.00887163925419250000	      0.05095078988470639500	      4.76121711316093070000	     -4.24314277175252390000	     -4.07360663080133100000	    -21.09464991053686900000	      4.69294981421607190000	      2.81889262364807360000	     -8.07689515644055510000	     13.88895934451476100000	      0.02550631534258783500	     -0.05329649501030200200	     18.97495547351601500000	     -5.45556793168520220000	     -3.54737214633916900000	     -2.60274003421518780000	     -0.54329905472850126000	     -0.00186561078641458060	      0.00298051091382029640	    -16.61087505994569500000	      3.19030953832891400000	      3.86766674855001740000	      0.11848666352421215000	     -0.09899184610666472700	     -0.04533408321561139400	     -4.29427845495684670000	      6.84341259750175190000	    -18.91126009571556900000	    -25.45643671937675400000	    -24.39394230742278000000	     29.53396358987247400000	    -85.57324535075511600000	     37.24693092058326700000	     -0.33766579310031991000	     -0.46260454363205800000	     23.14760252588161600000	     13.71068275476211800000	     30.04792370981291300000	   -116.99593366634005000000	    -30.93387807994749000000	      0.03138619744822374000	     -0.07590317459158590900	     12.47692117173533400000	    -30.73847017035362200000	     -2.15448867416893640000
      1.24849999999997310000	      0.59354653231007914000	      1.00882229404678550000	      0.05092808281079837900	      4.75905936819646770000	     -4.23970450565698000000	     -4.08304050605380200000	    -21.10727188019099600000	      4.68075729015843310000	      2.83363644571878880000	     -8.11989771618950580000	     13.90757122953473200000	      0.02533632265425092200	     -0.05352832000284082900	     18.98656002589117600000	     -5.44869063844891150000	     -3.53241158521413330000	     -2.66154376280115290000	     -0.55890279893367167000	     -0.00185012712426017640	      0.00294244696342819970	    -16.60460057132799600000	      3.17491116334978280000	      3.86656570011023870000	      0.11951662245171141000	     -0.09838767525907458900	     -0.04549454391633543600	     -4.33647280185823460000	      6.90948062940223550000	    -18.82409076953156200000	    -25.03110417930338700000	    -24.37585876605663400000	     29.44062935827882300000	    -86.43791129443441400000	     37.19915195271337900000	     -0.34231026233147399000	     -0.46511732684230939000	     23.26991714637676600000	     13.79847358599146800000	     29.79448097723680200000	   -118.21635249500017000000	    -31.48024065894052000000	      0.03032019433063803600	     -0.07660591250055988300	     12.62085316225386600000	    -30.85479558872549100000	     -2.24976290294669520000
